<svg version="1.2" xmlns="http://www.w3.org/2000/svg" viewBox="0 0 34 34" width="34" height="34">
	<style>
		.s0 { fill: currentColor } 
	</style>
	<path id="📥" class="s0" d="m15.05 0.64h3.94v13.98l6.38-6.48v5.07l-8.31 8.98-8.39-8.85v-5.07l6.38 6.35zm12.75 21.56h6.2v11.28h-34v-11.28h6.26q0.5 0 0.94 0.2 0.47 0.19 0.8 0.52 0.35 0.33 0.56 0.8 0.2 0.46 0.2 1v1.26q0 0.52 0.19 0.97 0.2 0.44 0.55 0.78 0.36 0.31 0.82 0.5 0.46 0.18 1 0.18h11.41q0.52 0 0.99-0.18 0.46-0.19 0.79-0.5 0.34-0.34 0.52-0.78 0.21-0.45 0.21-0.97v-1.26q0-0.54 0.18-1 0.21-0.47 0.56-0.8 0.35-0.33 0.82-0.52 0.46-0.2 1-0.2z"/>
</svg>