<svg version="1.2" xmlns="http://www.w3.org/2000/svg" viewBox="0 0 34 34" width="34" height="34">
	<style>
		.s0 { fill: currentColor } 
	</style>
	<path id="💾" fill-rule="evenodd" class="s0" d="m3.47 1.27h27.02q0.5 0 0.93 0.19 0.42 0.18 0.74 0.52 0.33 0.31 0.52 0.78 0.18 0.44 0.18 0.98v27.03q0 0.43-0.18 0.84-0.19 0.39-0.52 0.7-0.32 0.32-0.74 0.5-0.43 0.19-0.93 0.19h-7.81q0.54 0 1-0.2 0.46-0.21 0.82-0.56 0.35-0.37 0.53-0.84 0.21-0.46 0.21-1v-5.06q0-0.52-0.21-0.99-0.18-0.48-0.53-0.81-0.36-0.36-0.82-0.56-0.46-0.2-1-0.2h-11.41q-0.54 0-1.01 0.2-0.44 0.2-0.77 0.56-0.34 0.33-0.54 0.81-0.19 0.47-0.19 0.99v5.06q0 0.54 0.19 1 0.2 0.47 0.54 0.84 0.33 0.35 0.77 0.56 0.47 0.2 1.01 0.2h-7.8q-0.48 0-0.91-0.19-0.42-0.18-0.74-0.5-0.31-0.31-0.5-0.7-0.18-0.41-0.18-0.84v-27.03q0-0.54 0.18-0.98 0.19-0.47 0.5-0.78 0.32-0.34 0.74-0.52 0.43-0.19 0.91-0.19zm25.61 16.44v-15.16h-22.88v15.16q0 0.54 0.21 1 0.2 0.47 0.53 0.82 0.36 0.33 0.82 0.54 0.46 0.2 1 0.2h17.76q0.52 0 0.98-0.2 0.47-0.21 0.82-0.54 0.35-0.35 0.55-0.82 0.21-0.46 0.21-1zm-12.73 13.97h-5.08v-7.68h5.08z"/>
</svg>