<svg version="1.2" xmlns="http://www.w3.org/2000/svg" viewBox="0 0 2500 2441" width="2500" height="2441"><style></style><path  d="m1245.4 1861.3c23.9 30.2 38.5 68.7 38.5 110.3 0 45.8-16.7 86.3-44.8 117.5-31.2 28.1-72.8 44.8-118.6 44.8-97.8 0-176.8-79.1-176.8-175.8 0-55.2 24.9-104.1 64.5-136.3l103-99.9zm-553.5-920.8c-42.7 36.4-67.7 85.3-67.7 143.6 0 56.2 25 107.2 64.5 140.5l594.1 622.1c26 31.2 40.6 71.8 40.6 115.5 0 47.9-17.7 90.5-46.8 123.8l548.3-576.4c29.1-33.3 47.8-75.9 47.8-123.8 0-40.6-12.5-78-34.3-108.2l1-1-7.2-7.3c-9.4-11.5-19.8-21.9-30.2-30.2l-406.8-451.5-423.5 422.4c-4.1 4.1-8.3 7.3-17.7 7.3-6.2 0-21.8-5.2-27-9.4-9.4-9.4-9.4-31.2 0-41.6 28.1-30.2 43.7-68.7 43.7-109.2 0-59.4-33.3-111.4-81.2-139.5-23.9-11.4-50.9-17.7-79-17.7-29.2 0-60.4 7.3-81.2 18.8-20.8 9.3-37.4 21.8-37.4 21.8zm808.4-316.3l11.4-11.4c29.1-32.3 46.8-76 46.8-122.8 0-100.9-81.1-183.1-182-183.1-57.3 0-107.2 26-140.5 67.6l-528.5 531.7c31.2-26 71.8-41.6 115.5-41.6 100.9 0 182 82.2 182 183.1 0 48.9-18.7 92.6-48.9 125.9z"/></svg>