<svg version="1.2" xmlns="http://www.w3.org/2000/svg" viewBox="0 0 18 18" width="18" height="18"><style></style><path  d="m9.1 15.3c0.3 0.3 0.4 0.7 0.4 1.1 0 0.5-0.2 0.9-0.4 1.2-0.3 0.2-0.8 0.4-1.2 0.4-1 0-1.8-0.8-1.8-1.7 0-0.6 0.3-1.1 0.7-1.4l1-1zm-5.5-9c-0.4 0.3-0.6 0.8-0.6 1.4 0 0.5 0.2 1 0.6 1.4l5.9 6.1c0.2 0.3 0.4 0.7 0.4 1.1 0 0.5-0.2 0.9-0.5 1.3l5.4-5.7c0.3-0.4 0.5-0.8 0.5-1.2q0-0.7-0.4-1.1h0.1l-0.1-0.1q-0.2-0.2-0.3-0.3l-4-4.4-4.2 4.1q0 0.1-0.2 0.1c0 0-0.2-0.1-0.2-0.1-0.1-0.1-0.1-0.3 0-0.4 0.2-0.3 0.4-0.7 0.4-1.1 0-0.6-0.3-1.1-0.8-1.4q-0.4-0.1-0.8-0.1c-0.3 0-0.6 0-0.8 0.2-0.2 0-0.4 0.2-0.4 0.2zm8-3.1l0.1-0.2c0.3-0.3 0.5-0.7 0.5-1.2 0-1-0.8-1.8-1.8-1.8-0.6 0-1.1 0.3-1.4 0.7l-5.2 5.2c0.3-0.2 0.7-0.4 1.1-0.4 1 0 1.8 0.8 1.8 1.8 0 0.5-0.2 0.9-0.5 1.3z"/></svg>